<mxfile host="app.diagrams.net" modified="2021-06-16T06:44:16.359Z" agent="5.0 (Windows NT 10.0; Win64; x64) AppleWebKit/537.36 (KHTML, like Gecko) Chrome/91.0.4472.101 Safari/537.36 Edg/91.0.864.48" etag="FkSGxjrjYb-pUBkn-Tdh" version="14.7.9" type="github">
  <diagram id="R2lEEEUBdFMjLlhIrx00" name="Page-1">
    <mxGraphModel dx="2035" dy="693" grid="1" gridSize="10" guides="1" tooltips="1" connect="1" arrows="1" fold="1" page="1" pageScale="1" pageWidth="850" pageHeight="1100" math="0" shadow="0" extFonts="Permanent Marker^https://fonts.googleapis.com/css?family=Permanent+Marker">
      <root>
        <mxCell id="0" />
        <mxCell id="1" parent="0" />
        <mxCell id="u1bn5v3eBuOPlgsiqoQX-2" value="Student&#39;s Fee" style="rounded=0;whiteSpace=wrap;html=1;" vertex="1" parent="1">
          <mxGeometry x="80" y="120" width="120" height="60" as="geometry" />
        </mxCell>
        <mxCell id="u1bn5v3eBuOPlgsiqoQX-3" value="Student" style="rounded=0;whiteSpace=wrap;html=1;" vertex="1" parent="1">
          <mxGeometry x="360" y="120" width="120" height="60" as="geometry" />
        </mxCell>
        <mxCell id="u1bn5v3eBuOPlgsiqoQX-4" value="Class" style="rounded=0;whiteSpace=wrap;html=1;" vertex="1" parent="1">
          <mxGeometry x="640" y="120" width="120" height="60" as="geometry" />
        </mxCell>
        <mxCell id="u1bn5v3eBuOPlgsiqoQX-5" value="Course" style="rounded=0;whiteSpace=wrap;html=1;" vertex="1" parent="1">
          <mxGeometry x="640" y="280" width="120" height="60" as="geometry" />
        </mxCell>
        <mxCell id="u1bn5v3eBuOPlgsiqoQX-6" value="Score" style="rounded=0;whiteSpace=wrap;html=1;" vertex="1" parent="1">
          <mxGeometry x="350" y="280" width="120" height="60" as="geometry" />
        </mxCell>
        <mxCell id="u1bn5v3eBuOPlgsiqoQX-7" value="Test Schedule" style="rounded=0;whiteSpace=wrap;html=1;" vertex="1" parent="1">
          <mxGeometry x="80" y="280" width="120" height="60" as="geometry" />
        </mxCell>
        <mxCell id="u1bn5v3eBuOPlgsiqoQX-8" value="Personal Info" style="rounded=0;whiteSpace=wrap;html=1;" vertex="1" parent="1">
          <mxGeometry x="80" y="440" width="120" height="60" as="geometry" />
        </mxCell>
        <mxCell id="u1bn5v3eBuOPlgsiqoQX-9" value="Admin" style="rounded=0;whiteSpace=wrap;html=1;" vertex="1" parent="1">
          <mxGeometry x="220" y="770" width="120" height="60" as="geometry" />
        </mxCell>
        <mxCell id="u1bn5v3eBuOPlgsiqoQX-10" value="Teacher" style="rounded=0;whiteSpace=wrap;html=1;" vertex="1" parent="1">
          <mxGeometry x="510" y="790" width="120" height="60" as="geometry" />
        </mxCell>
        <mxCell id="u1bn5v3eBuOPlgsiqoQX-11" value="Manager&amp;nbsp;&lt;span style=&quot;white-space: pre&quot;&gt;	&lt;/span&gt;" style="rounded=0;whiteSpace=wrap;html=1;" vertex="1" parent="1">
          <mxGeometry x="350" y="920" width="120" height="60" as="geometry" />
        </mxCell>
        <mxCell id="u1bn5v3eBuOPlgsiqoQX-12" value="Account" style="rounded=0;whiteSpace=wrap;html=1;" vertex="1" parent="1">
          <mxGeometry x="340" y="630" width="120" height="60" as="geometry" />
        </mxCell>
        <mxCell id="u1bn5v3eBuOPlgsiqoQX-13" value="Room" style="rounded=0;whiteSpace=wrap;html=1;" vertex="1" parent="1">
          <mxGeometry x="640" y="640" width="120" height="60" as="geometry" />
        </mxCell>
        <mxCell id="u1bn5v3eBuOPlgsiqoQX-15" value="ManagerID" style="ellipse;whiteSpace=wrap;html=1;align=center;fontStyle=4;" vertex="1" parent="1">
          <mxGeometry x="360" y="1020" width="100" height="40" as="geometry" />
        </mxCell>
        <mxCell id="u1bn5v3eBuOPlgsiqoQX-16" value="Admin" style="rounded=0;whiteSpace=wrap;html=1;" vertex="1" parent="1">
          <mxGeometry x="220" y="770" width="120" height="60" as="geometry" />
        </mxCell>
        <mxCell id="u1bn5v3eBuOPlgsiqoQX-17" value="AdminID" style="ellipse;whiteSpace=wrap;html=1;align=center;fontStyle=4;" vertex="1" parent="1">
          <mxGeometry x="170" y="880" width="100" height="40" as="geometry" />
        </mxCell>
        <mxCell id="u1bn5v3eBuOPlgsiqoQX-18" value="TeacherID" style="ellipse;whiteSpace=wrap;html=1;align=center;fontStyle=4;" vertex="1" parent="1">
          <mxGeometry x="560" y="880" width="100" height="40" as="geometry" />
        </mxCell>
        <mxCell id="u1bn5v3eBuOPlgsiqoQX-19" value="StudentFeeID" style="ellipse;whiteSpace=wrap;html=1;align=center;fontStyle=4;" vertex="1" parent="1">
          <mxGeometry x="10" y="40" width="100" height="40" as="geometry" />
        </mxCell>
        <mxCell id="u1bn5v3eBuOPlgsiqoQX-20" value="StudentID" style="ellipse;whiteSpace=wrap;html=1;align=center;fontStyle=4;" vertex="1" parent="1">
          <mxGeometry x="150" y="40" width="100" height="40" as="geometry" />
        </mxCell>
        <mxCell id="u1bn5v3eBuOPlgsiqoQX-21" value="" style="ellipse;whiteSpace=wrap;html=1;align=center;" vertex="1" parent="1">
          <mxGeometry x="-60" y="120" width="100" height="40" as="geometry" />
        </mxCell>
        <mxCell id="u1bn5v3eBuOPlgsiqoQX-22" value="Attribute" style="ellipse;whiteSpace=wrap;html=1;align=center;" vertex="1" parent="1">
          <mxGeometry x="-60" y="200" width="100" height="40" as="geometry" />
        </mxCell>
        <mxCell id="u1bn5v3eBuOPlgsiqoQX-23" value="Fee Paid" style="ellipse;whiteSpace=wrap;html=1;align=center;" vertex="1" parent="1">
          <mxGeometry x="-110" y="40" width="100" height="40" as="geometry" />
        </mxCell>
      </root>
    </mxGraphModel>
  </diagram>
</mxfile>
